# AST/ASF file generated using VICON BodyLanguage
# -----------------------------------------------
:version 1.10
:name VICON
:units
  mass 1.0
  length 0.45
  angle deg
:documentation
   .ast/.asf automatically generated from VICON data using
   VICON BodyBuilder and BodyLanguage model FoxedUp or BRILLIANT.MOD
:root
   order TX TY TZ RX RY RZ
   axis XYZ
   position 0 0 0  
   orientation 0 0 0 
:bonedata
  begin
     id 1 
     name lhipjoint
     direction 0.714689 -0.624256 0.315473 
     length 2.45343 
     axis 0 0 0  XYZ
  end
  begin
     id 2 
     name lfemur
     direction 0.34202 -0.939693 0  
     length 6.59069  
     axis 0 0 20  XYZ
    dof rx ry rz
    limits (-160.0 20.0)
           (-70.0 70.0)
           (-60.0 70.0)
  end
  begin
     id 3 
     name ltibia
     direction 0.34202 -0.939693 0   
     length 6.73476   
     axis 0 0 20   XYZ
    dof rx
    limits (-10.0 170.0)
  end
  begin
     id 4 
     name lfoot
     direction 0.0718085 -0.197292 0.977711   
     length 1.52607   
     axis -90 7.62852e-016 20   XYZ
    dof rx rz
    limits (-45.0 90.0)
           (-70.0 20.0)
  end
  begin
     id 5 
     name ltoes
     direction 1.53553e-011 -4.22024e-011 1   
     length 0.777832   
     axis -90 7.62852e-016 20   XYZ
    dof rx
    limits (-90.0 20.0)
  end
  begin
     id 6 
     name rhipjoint
     direction -0.727419 -0.612432 0.309497   
     length 2.50079  
     axis 0 0 0  XYZ 
  end
  begin
     id 7 
     name rfemur
     direction -0.34202 -0.939693 0   
     length 6.51665   
     axis 0 0 -20   XYZ
    dof rx ry rz
    limits (-160.0 20.0)
           (-70.0 70.0)
           (-70.0 60.0)
  end
  begin
     id 8 
     name rtibia
     direction -0.34202 -0.939693 0   
     length 6.48919   
     axis 0 0 -20   XYZ
    dof rx
    limits (-10.0 170.0)
 end
 begin
     id 9 
     name rfoot
     direction -0.112205 -0.308282 0.944655   
     length 1.68717  
     axis -90 -7.62852e-016 -20   XYZ
    dof rx rz
    limits (-45.0 90.0)
           (-20.0 70.0)
  end
  begin
     id 10 
     name rtoes
     direction -1.53583e-011 -4.21993e-011 1   
     length 0.846859   
     axis -90 -7.62852e-016 -20   XYZ
    dof rx
    limits (-90.0 20.0)
  end
  begin
     id 11 
     name lowerback
     direction -0.00119603 0.996364 -0.0851956   
     length 1.67242   
     axis 0 0 0   XYZ
    dof rx ry rz
    limits (-20.0 45.0)
           (-30.0 30.0)
           (-30.0 30.0)
  end
  begin
     id 12 
     name upperback
     direction -0.00531001 0.998318 0.0577248   
     length 1.64819   
     axis 0 0 0   XYZ
    dof rx ry rz
    limits (-20.0 45.0)
           (-30.0 30.0)
           (-30.0 30.0)
  end
  begin
     id 13 
     name thorax
     direction -0.00653676 0.995132 0.0983291   
     length 1.67429   
     axis 0 0 0   XYZ
    dof rx ry rz
    limits (-20.0 45.0)
           (-30.0 30.0)
           (-30.0 30.0)
  end
  begin
     id 14 
     name lowerneck
     direction 0.0141424 0.999886 0.00525412   
     length 1.59623   
     axis 0 0 0   XYZ
    dof rx ry rz
    limits (-20.0 45.0)
           (-30.0 30.0)
           (-30.0 30.0)
  end
  begin
     id 15 
     name upperneck
     direction -0.0640064 0.987178 -0.146232   
     length 1.59576   
     axis 0 0 0   XYZ
    dof rx ry rz
    limits (-20.0 45.0)
           (-30.0 30.0)
           (-30.0 30.0)
  end
  begin
     id 16
     name head
     direction -0.0222942 0.998496 -0.0500859  
     length 1.60959  
     axis 0 0 0   XYZ
    dof rx ry rz
    limits (-20.0 45.0)
           (-30.0 30.0)
           (-30.0 30.0)
  end
  begin
     id 17 
     name lclavicle
     direction 0.908549 0.392612 0.142806  
     length 2.80649  
     axis 0 0 0   XYZ
    dof ry rz
    limits (-20.0 10.0)
           (0.0 20.0)
  end
  begin
     id 18 
     name lhumerus
     direction 1 -4.48968e-011 1.08832e-028   
     length 4.2884   
     axis -180 -30 -90   XYZ
    dof rx ry rz
    limits (-60.0 90.0)
           (-90.0 90.0)
           (-90.0 90.0)
  end
  begin
     id 19
     name lradius
     direction 1 -4.48952e-011 -3.02642e-028   
     length 3.06552   
     axis -180 -30 -90   XYZ
    dof rx
    limits (-10.0 170.0)
  end
  begin
     id 20
     name lwrist
     direction 1 -4.49014e-011 1.58672e-027   
     length 1.53276   
     axis -1.65735e-015 90 90   XYZ
    dof ry
    limits (-180.0 0.0)
 end
  begin
     id 21 
     name lhand
     direction 1 -4.48928e-011 3.17344e-027   
     length 0.753045   
     axis -2.02492e-015 90 90   XYZ
    dof rx rz
    limits (-90.0 90.0)
           (-45.0 45.0)
  end
  begin
     id 22 
     name lfingers
     direction 1 -4.48958e-011 6.34687e-027   
     length 0.607124   
     axis -4.04985e-015 90 90   XYZ
    dof rx
    limits (0.0 90.0)
  end
  begin
     id 23
     name lthumb
     direction 0.707107 -6.34905e-011 0.707107   
     length 0.871712   
     axis -90 45 2.85299e-015   XYZ
    dof rx rz
    limits (-45.0 45.0)
           (-45.0 45.0)
  end
  begin
     id 24 
     name rclavicle
     direction -0.885098 0.45949 0.0739604   
     length 2.9478  
     axis 0 0 0   XYZ 
    dof ry rz
    limits (-10.0 20.0)
           (-20.0 0.0)
  end
  begin
     id 25 
     name rhumerus
     direction -1 -4.4898e-011 -2.61739e-027  
     length 4.52172   
     axis -180 30 90   XYZ
    dof rx ry rz
    limits (-90.0 60.0)
           (-90.0 90.0)
           (-90.0 90.0)
  end
  begin
     id 26 
     name rradius
     direction -1 -4.48945e-011 9.02552e-028   
     length 2.8914   
     axis -180 30 90   XYZ
    dof rx
    limits (-10.0 170.0)
  end
  begin
     id 27 
     name rwrist
     direction -1 -4.49018e-011 1.58672e-027   
     length 1.4457   
     axis -1.65735e-015 -90 -90   XYZ
    dof ry
    limits (-180.0 0.0)
  end
  begin
     id 28
     name rhand
     direction -1 -4.48825e-011 3.17344e-027   
     length 0.680541   
     axis -2.02492e-015 -90 -90   XYZ
    dof rx rz
    limits (-90.0 90.0)
           (-45.0 45.0)
  end
  begin
     id 29
     name rfingers
     direction -1 -4.49067e-011 6.34687e-027   
     length 0.54867   
     axis -4.04985e-015 -90 -90   XYZ
    dof rx
    limits (0.0 90.0)
  end
  begin
     id 30
     name rthumb
     direction -0.707107 -6.34833e-011 0.707107   
     length 0.787783   
     axis -90 -45 -2.85299e-015   XYZ
    dof rx rz
    limits (-45.0 45.0)
           (-45.0 45.0)
  end
:hierarchy
  begin
    root lhipjoint rhipjoint lowerback
    lhipjoint lfemur
    lfemur ltibia
    ltibia lfoot
    lfoot ltoes
    rhipjoint rfemur
    rfemur rtibia
    rtibia rfoot
    rfoot rtoes
    lowerback upperback
    upperback thorax
    thorax lowerneck lclavicle rclavicle
    lowerneck upperneck
    upperneck head
    lclavicle lhumerus
    lhumerus lradius
    lradius lwrist
    lwrist lhand lthumb
    lhand lfingers
    rclavicle rhumerus
    rhumerus rradius
    rradius rwrist
    rwrist rhand rthumb
    rhand rfingers
  end

#!OML:ASF E:\emotionWalksFemale\Project 1\Capture day 1\Session 1\Female1.ASF
:FULLY-SPECIFIED
:DEGREES
65
root 9.0306 15.4991 22.4045 179.511 2.97942 -179.39
lowerback 7.72859 1.73175 1.04578
upperback -4.32576 2.51608 -0.0503248
thorax -8.87611 1.19018 -1.02884
lowerneck -7.95556 -1.84441 -6.05198
upperneck 12.2417 -2.66989 5.60403
head 5.1356 -1.3168 2.5495
rclavicle -2.64073e-014 -2.38542e-015
rhumerus -49.323 19.2669 -101.501
rradius 34.0938
rwrist 19.6464
rhand -6.11679 -52.7283
rfingers 7.12502
rthumb 19.7201 -81.748
lclavicle -2.64073e-014 -2.38542e-015
lhumerus -44.4875 -7.67014 92.247
lradius 35.9397
lwrist -11.3924
lhand -2.48704 -39.3565
lfingers 7.12502
lthumb 23.2062 -10.7346
rfemur 1.94314 17.7481 26.9219
rtibia 14.5506
rfoot -15.9096 -30.9545
rtoes 1.71912
lfemur -3.39948 -22.5498 -24.1412
ltibia 22.3242
lfoot -19.765 21.4902
ltoes -38.5799
66
root 9.03404 15.4993 22.4048 179.502 2.78174 -179.396
lowerback 7.76129 1.69373 1.04026
upperback -4.33016 2.46486 -0.0502888
thorax -8.90146 1.16523 -1.01932
lowerneck -7.89651 -1.83531 -6.00522
upperneck 12.1665 -2.65524 5.55803
head 5.10034 -1.31018 2.52856
rclavicle -7.13761e-015 2.48481e-016
rhumerus -49.3492 19.4281 -101.647
rradius 34.1941
rwrist 19.6188
rhand -5.7869 -52.7168
rfingers 7.12502
rthumb 20.0372 -81.7036
lclavicle -7.13761e-015 2.48481e-016
lhumerus -44.4174 -7.53625 92.1407
lradius 35.8523
lwrist -11.4517
lhand -3.16987 -39.6198
lfingers 7.12502
lthumb 22.5509 -10.9169
rfemur 2.03009 17.7351 26.9649
rtibia 14.4721
rfoot -16.1879 -31.0738
rtoes 2.51618
lfemur -3.42325 -22.6119 -24.1087
ltibia 22.3555
lfoot -19.6813 21.3808
ltoes -38.8457
67
root 9.03639 15.4962 22.4056 179.386 2.50407 -179.351
lowerback 7.89814 1.62889 1.10667
upperback -4.30336 2.38432 -0.0498788
thorax -8.95188 1.12023 -1.04809
lowerneck -7.77421 -1.82051 -5.96383
upperneck 12.0016 -2.64308 5.60317
head 5.02797 -1.29969 2.53706
rclavicle -6.24308e-015 9.93923e-017
rhumerus -49.3747 19.5744 -101.809
rradius 34.1642
rwrist 19.7525
rhand -5.80878 -52.4031
rfingers 7.12502
rthumb 20.0162 -81.3921
lclavicle -6.24308e-015 9.93923e-017
lhumerus -44.3994 -7.39788 92.0208
lradius 35.9183
lwrist -11.4508
lhand -3.28395 -39.7136
lfingers 7.12502
lthumb 22.4414 -10.9974
rfemur 2.24425 17.7431 27.1114
rtibia 14.3967
rfoot -16.2359 -31.325
rtoes 2.9092
lfemur -3.34067 -22.7276 -24.0731
ltibia 22.3955
lfoot -19.5855 21.2019
ltoes -38.7944
68
root 9.03919 15.5022 22.4064 179.652 2.80095 -179.304
lowerback 7.67976 1.76139 1.13242
upperback -4.36743 2.56833 -0.0563949
thorax -8.88773 1.21127 -1.09096
lowerneck -7.77821 -1.84873 -5.97732
upperneck 11.8874 -2.68291 5.70046
head 4.99723 -1.31159 2.56676
rclavicle 2.2823e-014 2.13694e-015
rhumerus -49.3626 19.679 -101.95
rradius 34.2033
rwrist 19.8847
rhand -5.83856 -52.2975
rfingers 7.12502
rthumb 19.9875 -81.2895
lclavicle 2.2823e-014 2.13694e-015
lhumerus -44.3218 -7.28012 91.8843
lradius 36.0531
lwrist -11.2431
lhand -2.91541 -39.6817
lfingers 7.12502
lthumb 22.7951 -11.0086
rfemur 1.93871 17.802 27.0371
rtibia 14.3154
rfoot -15.6381 -31.1282
rtoes 1.23752
lfemur -3.63622 -22.6274 -23.9187
ltibia 22.4177
lfoot -19.479 21.4067
ltoes -39.1313
69
root 9.041 15.501 22.405 179.595 2.61854 -179.308
lowerback 7.70201 1.72391 1.16904
upperback -4.32434 2.51862 -0.0657693
thorax -8.85303 1.18407 -1.11354
lowerneck -7.78318 -1.88281 -6.00445
upperneck 11.7891 -2.71546 5.69882
head 4.97025 -1.32627 2.56827
rclavicle -2.14128e-014 -4.87022e-015
rhumerus -49.3465 19.7186 -102.03
rradius 34.2941
rwrist 20.1121
rhand -5.68928 -52.6075
rfingers 7.12502
rthumb 20.131 -81.5845
lclavicle -2.14128e-014 -4.87022e-015
lhumerus -44.2136 -7.20415 91.7977
lradius 36.1313
lwrist -10.9309
lhand -2.72923 -39.5595
lfingers 7.12502
lthumb 22.9738 -10.9085
rfemur 2.08094 17.777 27.0947
rtibia 14.2421
rfoot -15.4671 -31.2869
rtoes 0.35009
lfemur -3.60454 -22.6872 -23.935
ltibia 22.4542
lfoot -19.2967 21.4439
ltoes -40.0808
70
root 9.04404 15.5003 22.4034 179.565 2.48687 -179.3
lowerback 7.71713 1.69598 1.16975
upperback -4.31294 2.48139 -0.0560538
thorax -8.8508 1.16602 -1.09833
lowerneck -7.72794 -1.8918 -5.98438
upperneck 11.7007 -2.72208 5.66466
head 4.93346 -1.33019 2.55398
rclavicle -4.35463e-015 1.3418e-015
rhumerus -49.4074 19.7872 -102.175
rradius 34.4011
rwrist 20.2225
rhand -5.39332 -53.0364
rfingers 7.12502
rthumb 20.4155 -81.9832
lclavicle -4.35463e-015 1.3418e-015
lhumerus -44.1637 -7.17989 91.7641
lradius 36.1363
lwrist -10.7936
lhand -2.90422 -39.4543
lfingers 7.12502
lthumb 22.8059 -10.7825
rfemur 2.16446 17.8421 27.1553
rtibia 14.2021
rfoot -15.5471 -31.4516
rtoes 0.669301
lfemur -3.56566 -22.776 -23.9276
ltibia 22.4535
lfoot -19.3044 21.3778
ltoes -39.9276
71
root 9.04819 15.497 22.403 179.449 2.28045 -179.275
lowerback 7.8456 1.64755 1.17355
upperback -4.28414 2.41606 -0.0489207
thorax -8.89668 1.13242 -1.08698
lowerneck -7.75509 -1.90054 -6.0025
upperneck 11.6789 -2.74013 5.75395
head 4.93373 -1.33364 2.58346
rclavicle -1.12251e-014 -4.82053e-015
rhumerus -49.4496 19.8331 -102.338
rradius 34.4104
rwrist 20.3868
rhand -5.46841 -53.0153
rfingers 7.12502
rthumb 20.3433 -81.9698
lclavicle -1.12251e-014 -4.82053e-015
lhumerus -44.1347 -7.11139 91.6977
lradius 36.1172
lwrist -10.8995
lhand -3.16186 -39.3817
lfingers 7.12502
lthumb 22.5586 -10.6796
rfemur 2.34853 17.9081 27.2889
rtibia 14.1805
rfoot -16.1081 -31.6817
rtoes 2.0743
lfemur -3.46209 -22.8353 -23.9105
ltibia 22.478
lfoot -19.4314 21.1507
ltoes -39.3641
